<svg width="22" height="22" viewBox="0 0 22 22" fill="none" xmlns="http://www.w3.org/2000/svg">
<g id="ic:baseline-apple">
<path id="Vector" d="M15.8866 18.5513C14.939 19.4704 13.9043 19.3252 12.9083 18.8899C11.8542 18.4448 10.8872 18.4255 9.77516 18.8899C8.38267 19.4897 7.64775 19.3156 6.81612 18.5513C2.09713 13.6849 2.79337 6.27406 8.15059 6.00317C9.45605 6.07089 10.365 6.7191 11.129 6.77715C12.27 6.54495 13.3628 5.8774 14.5812 5.96447C16.0414 6.08057 17.1438 6.66105 17.869 7.70592C14.8519 9.51509 15.5675 13.4914 18.3332 14.604C17.782 16.0552 17.0664 17.4967 15.877 18.5609L15.8866 18.5513ZM11.0323 5.94512C10.8872 3.78766 12.6375 2.00752 14.6489 1.83337C14.9293 4.32945 12.3861 6.18699 11.0323 5.94512Z" fill="#669199"/>
</g>
</svg>
