<svg width="16" height="16" viewBox="0 0 16 16" fill="none" xmlns="http://www.w3.org/2000/svg">
<g id="google 1">
<g id="Clip path group">
<mask id="mask0_801_292" style="mask-type:luminance" maskUnits="userSpaceOnUse" x="0" y="0" width="15" height="16">
<g id="b">
<path id="Vector" d="M14.8332 6.66663H7.99984V9.49996H11.9332C11.5665 11.3 10.0332 12.3333 7.99984 12.3333C5.59984 12.3333 3.6665 10.4 3.6665 7.99996C3.6665 5.59996 5.59984 3.66663 7.99984 3.66663C9.03317 3.66663 9.9665 4.03329 10.6998 4.63329L12.8332 2.49996C11.5332 1.36663 9.8665 0.666626 7.99984 0.666626C3.93317 0.666626 0.666504 3.93329 0.666504 7.99996C0.666504 12.0666 3.93317 15.3333 7.99984 15.3333C11.6665 15.3333 14.9998 12.6666 14.9998 7.99996C14.9998 7.56663 14.9332 7.09996 14.8332 6.66663Z" fill="white"/>
</g>
</mask>
<g mask="url(#mask0_801_292)">
<path id="Vector_2" d="M0 12.3333V3.66663L5.66667 7.99996L0 12.3333Z" fill="#FBBC05"/>
</g>
</g>
<g id="Clip path group_2">
<mask id="mask1_801_292" style="mask-type:luminance" maskUnits="userSpaceOnUse" x="0" y="0" width="15" height="16">
<g id="b_2">
<path id="Vector_3" d="M14.8332 6.66663H7.99984V9.49996H11.9332C11.5665 11.3 10.0332 12.3333 7.99984 12.3333C5.59984 12.3333 3.6665 10.4 3.6665 7.99996C3.6665 5.59996 5.59984 3.66663 7.99984 3.66663C9.03317 3.66663 9.9665 4.03329 10.6998 4.63329L12.8332 2.49996C11.5332 1.36663 9.8665 0.666626 7.99984 0.666626C3.93317 0.666626 0.666504 3.93329 0.666504 7.99996C0.666504 12.0666 3.93317 15.3333 7.99984 15.3333C11.6665 15.3333 14.9998 12.6666 14.9998 7.99996C14.9998 7.56663 14.9332 7.09996 14.8332 6.66663Z" fill="white"/>
</g>
</mask>
<g mask="url(#mask1_801_292)">
<path id="Vector_4" d="M0 3.66667L5.66667 8L8 5.96667L16 4.66667V0H0V3.66667Z" fill="#EA4335"/>
</g>
</g>
<g id="Clip path group_3">
<mask id="mask2_801_292" style="mask-type:luminance" maskUnits="userSpaceOnUse" x="0" y="0" width="15" height="16">
<g id="b_3">
<path id="Vector_5" d="M14.8332 6.66663H7.99984V9.49996H11.9332C11.5665 11.3 10.0332 12.3333 7.99984 12.3333C5.59984 12.3333 3.6665 10.4 3.6665 7.99996C3.6665 5.59996 5.59984 3.66663 7.99984 3.66663C9.03317 3.66663 9.9665 4.03329 10.6998 4.63329L12.8332 2.49996C11.5332 1.36663 9.8665 0.666626 7.99984 0.666626C3.93317 0.666626 0.666504 3.93329 0.666504 7.99996C0.666504 12.0666 3.93317 15.3333 7.99984 15.3333C11.6665 15.3333 14.9998 12.6666 14.9998 7.99996C14.9998 7.56663 14.9332 7.09996 14.8332 6.66663Z" fill="white"/>
</g>
</mask>
<g mask="url(#mask2_801_292)">
<path id="Vector_6" d="M0 12.3333L10 4.66667L12.6333 5L16 0V16H0V12.3333Z" fill="#34A853"/>
</g>
</g>
<g id="Clip path group_4">
<mask id="mask3_801_292" style="mask-type:luminance" maskUnits="userSpaceOnUse" x="0" y="0" width="15" height="16">
<g id="b_4">
<path id="Vector_7" d="M14.8332 6.66663H7.99984V9.49996H11.9332C11.5665 11.3 10.0332 12.3333 7.99984 12.3333C5.59984 12.3333 3.6665 10.4 3.6665 7.99996C3.6665 5.59996 5.59984 3.66663 7.99984 3.66663C9.03317 3.66663 9.9665 4.03329 10.6998 4.63329L12.8332 2.49996C11.5332 1.36663 9.8665 0.666626 7.99984 0.666626C3.93317 0.666626 0.666504 3.93329 0.666504 7.99996C0.666504 12.0666 3.93317 15.3333 7.99984 15.3333C11.6665 15.3333 14.9998 12.6666 14.9998 7.99996C14.9998 7.56663 14.9332 7.09996 14.8332 6.66663Z" fill="white"/>
</g>
</mask>
<g mask="url(#mask3_801_292)">
<path id="Vector_8" d="M15.9997 16L5.66634 7.99996L4.33301 6.99996L15.9997 3.66663V16Z" fill="#4285F4"/>
</g>
</g>
</g>
</svg>
